<?xml version="1.0" encoding="UTF-8"?> <svg xmlns="http://www.w3.org/2000/svg" id="Layer_1" data-name="Layer 1" viewBox="0 0 256 256"><defs><style>.cls-1{fill:#cccaca;}.cls-2{fill:#f0c62f;}</style></defs><title>icons basic + sport</title><path class="cls-1" d="M207,155.37H50.4c-5.85,0-12.4-4.79-12.4-11.22V60A11.15,11.15,0,0,1,49,48.78H201.32a2.79,2.79,0,0,1,0,5.57H49A5.56,5.56,0,0,0,43.58,60v84.15c0,3.06,3.76,5.66,6.82,5.66H207a5.58,5.58,0,0,0,5.46-5.66V74.81a2.78,2.78,0,1,1,5.55,0v69.34a11.11,11.11,0,0,1-11,11.22"></path><path class="cls-1" d="M156.33,135.63a2.79,2.79,0,0,1-2.79-2.78V70a2.79,2.79,0,1,1,5.57,0v62.87a2.79,2.79,0,0,1-2.78,2.78"></path><path class="cls-1" d="M100.86,135.63a2.8,2.8,0,0,1-2.79-2.78V70a2.79,2.79,0,0,1,5.58,0v62.87a2.8,2.8,0,0,1-2.79,2.78"></path><path class="cls-1" d="M87.82,179.29H68.22a2.79,2.79,0,0,1,0-5.58h19.6a2.79,2.79,0,1,1,0,5.58"></path><path class="cls-1" d="M87.82,207.22H68.22a2.79,2.79,0,0,1,0-5.57h19.6a2.79,2.79,0,1,1,0,5.57"></path><path class="cls-1" d="M87.82,193.43H49.15a2.79,2.79,0,1,1,0-5.57H87.82a2.79,2.79,0,1,1,0,5.57"></path><path class="cls-1" d="M191.86,179.29h-19.6a2.79,2.79,0,0,1,0-5.58h19.6a2.79,2.79,0,0,1,0,5.58"></path><path class="cls-1" d="M191.86,207.22h-19.6a2.79,2.79,0,1,1,0-5.57h19.6a2.79,2.79,0,0,1,0,5.57"></path><path class="cls-1" d="M210.94,193.43H172.26a2.79,2.79,0,1,1,0-5.57h38.68a2.79,2.79,0,1,1,0,5.57"></path><polygon class="cls-1" points="130.39 175.95 134.75 184.99 144.51 186.44 137.45 193.49 139.11 203.43 130.39 198.74 121.67 203.43 123.34 193.49 116.29 186.44 126.03 184.99 130.39 175.95"></polygon><path class="cls-2" d="M61.23,127.23a2.76,2.76,0,0,1-2.29-4.36L82.52,88.72H61.23a2.78,2.78,0,1,1,0-5.56H87.82a2.8,2.8,0,0,1,2.46,1.49,2.75,2.75,0,0,1-.17,2.88L63.52,126a2.76,2.76,0,0,1-2.29,1.2"></path><path class="cls-2" d="M117.1,127.23a2.77,2.77,0,0,1-2.29-4.36l23.57-34.15H117.1a2.78,2.78,0,1,1,0-5.56h26.59a2.78,2.78,0,0,1,2.45,1.49,2.75,2.75,0,0,1-.16,2.88L119.39,126a2.75,2.75,0,0,1-2.29,1.2"></path><path class="cls-2" d="M174.25,127.23a2.77,2.77,0,0,1-2.28-4.36l23.57-34.15H174.25a2.78,2.78,0,1,1,0-5.56h26.59a2.81,2.81,0,0,1,2.46,1.49,2.77,2.77,0,0,1-.16,2.88L176.54,126a2.75,2.75,0,0,1-2.29,1.2"></path></svg> 