<?xml version="1.0" encoding="utf-8"?>
<!-- Generator: Adobe Illustrator 22.1.0, SVG Export Plug-In . SVG Version: 6.00 Build 0)  -->
<svg version="1.1" id="Layer_1" xmlns="http://www.w3.org/2000/svg" xmlns:xlink="http://www.w3.org/1999/xlink" x="0px" y="0px"
	 viewBox="0 0 256 256" style="enable-background:new 0 0 256 256;" xml:space="preserve">
<style type="text/css">
	.st0{fill:#00AABE;}
</style>
<path class="st0" d="M203,61.5H53c-7.7,0-14,6.3-14,14v105c0,7.7,6.3,14,14,14h150c7.7,0,14-6.3,14-14v-105
	C217,67.8,210.7,61.5,203,61.5z M51.2,67.3c0.1,0,0.3-0.1,0.4-0.1C52,67.1,52.5,67,53,67h150c0.5,0,1,0.1,1.4,0.2
	c0.1,0,0.3,0.1,0.4,0.1l1.9,0.4l-1.4,1.3c-12.9,11.8-56,51.2-71.1,64.9c-1.3,1.2-3.4,2.6-6.1,2.6c-2.7,0-4.8-1.4-6.1-2.6
	c-10.1-9.1-35.3-32.1-71.1-64.9l-1.4-1.3L51.2,67.3z M45.4,184.3l-0.5-1.9c-0.2-0.6-0.3-1.2-0.3-1.9v-105c0-0.8,0.2-1.5,0.4-2.2
	l0.5-1.7l1.2,1.1c6.3,5.7,38.6,35.3,59.5,54.3l0.8,0.8l-0.9,0.7c-19.6,16.8-50.5,46.1-59.5,54.7L45.4,184.3z M204.9,188.6
	c-0.1,0-0.3,0.1-0.4,0.1c-0.4,0.1-0.9,0.3-1.5,0.3H53c-0.6,0-1.1-0.1-1.5-0.3c-0.1,0-0.3-0.1-0.4-0.1l-1.8-0.4l1.3-1.3
	c9.1-8.7,40.3-38.3,59.7-54.9l0.7-0.6l0.7,0.6c2.5,2.3,4.8,4.3,6.5,5.9c2.9,2.6,6.3,4,9.8,4c3.5,0,6.9-1.4,9.8-4
	c1.8-1.6,4.1-3.7,6.6-5.9l0.7-0.6l0.7,0.6c19.4,16.6,50.6,46.2,59.7,54.9l1.3,1.3L204.9,188.6z M211.5,180.5c0,0.7-0.2,1.4-0.3,1.9
	l-0.5,1.9l-1.2-1.2c-9-8.6-39.8-37.8-59.5-54.7l-0.9-0.7l0.8-0.8c18.8-17.1,47.8-43.7,59.5-54.3l1.2-1.1l0.5,1.7
	c0.2,0.6,0.4,1.4,0.4,2.2V180.5z"/>
</svg>
