<svg id="Layer_1" data-name="Layer 1" xmlns="http://www.w3.org/2000/svg" viewBox="0 0 256 256"><defs><style>.cls-1{fill:#fff;}</style></defs><title>icons basic + sport</title><path class="cls-1" d="M203,61.5H53a14,14,0,0,0-14,14v105a14,14,0,0,0,14,14H203a14,14,0,0,0,14-14V75.5A14,14,0,0,0,203,61.5ZM51.23,67.34l.42-.11A4.81,4.81,0,0,1,53,67H203a4.81,4.81,0,0,1,1.35.23l.42.11,1.89.41-1.43,1.3c-12.85,11.77-56,51.23-71.12,64.86a8.5,8.5,0,0,1-12.22,0c-10.07-9.07-35.33-32.1-71.13-64.86l-1.42-1.3Zm-5.85,117-.53-1.91a6.5,6.5,0,0,1-.35-1.92V75.5a7.47,7.47,0,0,1,.41-2.17l.5-1.72,1.18,1.08C52.86,78.42,85.15,108,106.06,127l.84.76-.86.74c-19.59,16.83-50.46,46.11-59.45,54.69Zm159.54,4.3-.4.11A5.6,5.6,0,0,1,203,189H53a5.6,5.6,0,0,1-1.52-.26l-.4-.11-1.79-.43,1.33-1.27c9.11-8.68,40.33-38.3,59.71-54.88l.67-.57.66.59c2.48,2.26,4.75,4.31,6.54,5.92a14,14,0,0,0,19.59,0c1.79-1.62,4.07-3.67,6.55-5.93l.66-.59.67.57c19.39,16.59,50.61,46.2,59.71,54.88l1.33,1.27Zm6.58-8.13a6.5,6.5,0,0,1-.35,1.92l-.53,1.91-1.21-1.15c-9-8.56-39.78-37.8-59.45-54.69l-.86-.74.84-.76c18.75-17,47.83-43.65,59.47-54.3l1.18-1.08.5,1.71a7.54,7.54,0,0,1,.41,2.18Z"/></svg>
