<?xml version="1.0" encoding="utf-8"?>
<!-- Generator: Adobe Illustrator 24.0.1, SVG Export Plug-In . SVG Version: 6.00 Build 0)  -->
<svg version="1.1" id="Layer_1" xmlns="http://www.w3.org/2000/svg" xmlns:xlink="http://www.w3.org/1999/xlink" x="0px" y="0px"
	 viewBox="0 0 256 256" style="enable-background:new 0 0 256 256;" xml:space="preserve">
<style type="text/css">
	.st0{fill:#CCCACA;}
	.st1{fill:#FFC800;}
	.st2{fill:#FFFFFF;}
</style>
<path class="st2" d="M128,38c-49.7,0-90,40.3-90,90s40.3,90,90,90s90-40.3,90-90S177.7,38,128,38z M149,128h-13.5v48.8h-20.2V128
	h-10.1v-16.8h10.1V101c0-7.2,1.7-12.6,5.1-16.3c3.4-3.7,9-5.5,16.8-5.5h13.5V96h-8.4c-1.5,0-2.8,0.1-3.7,0.4c-0.9,0.3-1.6,0.7-2,1.4
	c-0.4,0.7-0.7,1.4-0.8,2c-0.1,0.7-0.2,1.7-0.2,2.9v8.4h15.2L149,128z"/>
</svg>
