<?xml version="1.0" encoding="UTF-8"?> <!-- Generator: Adobe Illustrator 22.1.0, SVG Export Plug-In . SVG Version: 6.00 Build 0) --> <svg xmlns="http://www.w3.org/2000/svg" xmlns:xlink="http://www.w3.org/1999/xlink" id="Layer_1" x="0px" y="0px" viewBox="0 0 256 256" style="enable-background:new 0 0 256 256;" xml:space="preserve"> <style type="text/css"> .st0{fill:#FFFFFF;} </style> <path class="st0" d="M215.6,108c-5.3-23.3-19.3-43.2-39.5-56c-0.5-0.3-1.1-0.6-1.6-0.9c-0.2-0.2-0.4-0.4-0.6-0.5 c-0.1-0.1-0.2-0.1-0.4-0.1c-13.7-8.1-29.2-12.4-45-12.5h-0.1c-6.8,0-13.6,0.8-20.2,2.3c0,0,0,0-0.1,0c0,0,0,0-0.1,0 c-23.4,5.4-43.4,19.6-56.2,40c-12.7,20.3-16.7,44.3-11.5,67.6c2,8.9,5.3,17.3,9.9,25.2c0.8,1.4,2.6,1.9,4,1.1c1.4-0.8,1.9-2.6,1.1-4 c-3.7-6.5-6.5-13.4-8.4-20.6l27.5-6.3c3.9,14.1,10.8,27.1,20.3,38.2c-5.1,4.9-9.4,10.5-12.9,16.7c-4-2.7-7.8-5.6-11.4-9 c-1.6-1.5-3.1-3.1-4.6-4.7c-1.1-1.2-3-1.3-4.2-0.2c-1.2,1.1-1.3,3-0.2,4.2c1.6,1.8,3.3,3.5,5,5.1c16.9,16,39,24.6,61.7,24.6 c6.6,0,13.3-0.7,19.9-2.2c6.8-1.6,13.3-3.9,19.4-6.8C205,190.6,224.9,149.1,215.6,108z M209.1,106.5l-27.6,6.3 c-3.6-14.7-10.3-28-19.7-39.5c4.7-4.8,8.6-10,11.8-15.8C191.3,68.9,203.7,86.2,209.1,106.5z M175.1,160.6c-11.8-3.1-24.5-3.6-37-1.2 l-6.6-29.1l45.4-10.3C179.3,133.4,178.7,147.2,175.1,160.6z M143.2,208.2c-15.7-5.9-29.3-14.9-40.1-26.2c8.6-7.2,19-12.5,30.6-15.5 L143.2,208.2z M139.4,165.1c11.5-2.1,23.2-1.7,34,1.1c-4.8,14.7-13.1,28.6-24.6,40.5L139.4,165.1z M78.8,136.2 c-2.8-13.6-2.6-27.3,0.5-40.6c6.9,1.9,14.2,2.9,21.6,2.9c5.6,0,11.3-0.6,17-1.7l6.6,29.1L78.8,136.2z M105.9,47 c0.2-0.1,0.5-0.1,0.7-0.2l10,44.1c-12.3,2.4-24.5,2-35.8-1.1c4.5-15.2,12.9-29.7,24.8-42.4C105.7,47.3,105.8,47.2,105.9,47z M112.7,45.4c0.2,0.1,0.3,0.3,0.6,0.4c16,6.2,29.7,15.5,40.3,27.1c-8.7,7.7-19.5,13.5-31.3,16.8l-10-44.2 C112.4,45.4,112.6,45.4,112.7,45.4z M123.6,95.4c12.8-3.4,24.4-9.7,33.9-18c8.7,10.7,14.9,23.1,18.2,36.8l-45.5,10.4L123.6,95.4z M128.5,43.9c14,0,27.8,3.7,40.1,10.5c-2.9,5.2-6.4,10-10.6,14.3c-9.2-10.1-20.6-18.5-33.8-24.8C125.6,44,127,43.9,128.5,43.9 L128.5,43.9z M95,50.8c-9.2,11.5-15.9,24.1-19.8,37.3c-5.6-2-10.9-4.8-15.8-8.2C68.4,66.9,80.7,56.9,95,50.8z M56.1,84.8 c5.4,3.8,11.3,6.8,17.5,9C70.2,108,70,122.9,73,137.5l-27.4,6.2C41.7,123.4,45.4,102.6,56.1,84.8z M80.2,141.9l45.6-10.4l6.6,29.1 c-12.6,3.2-24,9-33.3,16.9C90.3,167.1,83.8,155,80.2,141.9z M86.9,201.3c3.2-5.6,7.1-10.8,11.8-15.4c10.2,10.8,22.8,19.6,37.3,25.8 C118.9,213.3,101.8,209.6,86.9,201.3z M164.7,203.6c-2.6,1.3-5.2,2.4-8,3.4c10.3-11.7,17.8-25,22.4-39c6.2,2.2,12,5.1,17.3,8.9 C188.4,188,177.7,197.3,164.7,203.6z M199.6,171.9c-5.7-4.1-12.1-7.3-18.9-9.6c3.8-14.3,4.5-29.2,1.9-43.7l27.7-6.3 C214.4,133.5,210.3,154.6,199.6,171.9z"></path> </svg> 