<?xml version="1.0" encoding="UTF-8"?> <svg xmlns="http://www.w3.org/2000/svg" id="Layer_1" data-name="Layer 1" viewBox="0 0 256 256"><defs><style>.cls-1{fill:#f0c62f;}.cls-2{fill:#cccaca;}</style></defs><title>icons basic + sport</title><path class="cls-1" d="M198.74,125.82l-3.66-6.34a42.19,42.19,0,0,0,3.07-3.06l6.3,3.65a2.79,2.79,0,0,0,2.05.28,2.69,2.69,0,0,0,1.65-1.28l6-10.47a2.71,2.71,0,0,0-1-3.7l-6.33-3.66A39.94,39.94,0,0,0,208,97h7.3a2.69,2.69,0,0,0,2.7-2.7V82.24a2.7,2.7,0,0,0-2.7-2.71H208a39.3,39.3,0,0,0-1.12-4.2l6.33-3.66a2.71,2.71,0,0,0,1-3.7l-6-10.48a2.7,2.7,0,0,0-1.65-1.26,2.77,2.77,0,0,0-2.05.26l-6.31,3.67a40.44,40.44,0,0,0-3.06-3.08l3.66-6.32a2.73,2.73,0,0,0-1-3.71l-10.47-6a2.86,2.86,0,0,0-2.05-.27A2.74,2.74,0,0,0,183.57,42l-3.65,6.33a39.72,39.72,0,0,0-4.19-1.11V39.89A2.72,2.72,0,0,0,173,37.18H161a2.72,2.72,0,0,0-2.71,2.71v7.33a36.57,36.57,0,0,0-4.17,1.12L150.42,42a2.72,2.72,0,0,0-3.72-1l-10.45,6a2.73,2.73,0,0,0-1,3.71l3.65,6.33a42.19,42.19,0,0,0-3.06,3.07l-6.33-3.67a2.77,2.77,0,0,0-2-.26,2.7,2.7,0,0,0-1.65,1.26l-6,10.48a2.7,2.7,0,0,0,1,3.7l6.32,3.66c-.43,1.38-.8,2.78-1.1,4.2h-7.32A2.71,2.71,0,0,0,116,82.24v12.1a2.7,2.7,0,0,0,2.71,2.7H126c.3,1.43.67,2.82,1.1,4.2l-6.31,3.66a2.69,2.69,0,0,0-1,3.7l6,10.48a2.68,2.68,0,0,0,1.65,1.27,2.64,2.64,0,0,0,2-.27l6.33-3.66a38.41,38.41,0,0,0,3.06,3.06l-3.65,6.34a2.73,2.73,0,0,0,1,3.71l10.45,6a2.7,2.7,0,0,0,2.07.28,2.76,2.76,0,0,0,1.65-1.27l3.65-6.34a40.55,40.55,0,0,0,4.17,1.12v7.32A2.72,2.72,0,0,0,161,139.4H173a2.72,2.72,0,0,0,2.71-2.72v-7.32a40.24,40.24,0,0,0,4.19-1.12l3.65,6.34a2.69,2.69,0,0,0,3.7,1l10.47-6A2.73,2.73,0,0,0,198.74,125.82Zm-9.48-5.57,3.42,5.93-5.77,3.33-3.42-5.93a2.74,2.74,0,0,0-3.34-1.18,34.17,34.17,0,0,1-7.54,2,2.72,2.72,0,0,0-2.29,2.69V134h-6.66V127.1a2.73,2.73,0,0,0-2.3-2.69,34.56,34.56,0,0,1-7.52-2,2.7,2.7,0,0,0-3.34,1.18l-3.43,6-5.77-3.35,3.42-5.93a2.72,2.72,0,0,0-.64-3.46,36.67,36.67,0,0,1-5.54-5.53,2.69,2.69,0,0,0-3.45-.66L129.16,114l-3.33-5.79,5.93-3.43a2.71,2.71,0,0,0,1.17-3.33,37.51,37.51,0,0,1-2-7.55,2.69,2.69,0,0,0-2.68-2.29h-6.88V85h6.88a2.7,2.7,0,0,0,2.68-2.29,36.08,36.08,0,0,1,2-7.57,2.71,2.71,0,0,0-1.16-3.32l-5.94-3.45,3.33-5.75,5.93,3.4a2.68,2.68,0,0,0,3.45-.64,36.28,36.28,0,0,1,5.54-5.54,2.72,2.72,0,0,0,.64-3.46L141.3,50.4l5.77-3.35,3.43,6a2.73,2.73,0,0,0,3.33,1.17,35.49,35.49,0,0,1,7.53-2,2.72,2.72,0,0,0,2.3-2.69V42.6h6.66v6.87a2.72,2.72,0,0,0,2.29,2.69,35.53,35.53,0,0,1,7.54,2A2.76,2.76,0,0,0,183.49,53l3.42-5.95,5.77,3.34-3.42,5.93a2.7,2.7,0,0,0,.64,3.46,35.34,35.34,0,0,1,5.53,5.54,2.69,2.69,0,0,0,3.48.64l5.91-3.4,3.33,5.77-5.94,3.43a2.72,2.72,0,0,0-1.16,3.32,36.51,36.51,0,0,1,2,7.57A2.7,2.7,0,0,0,205.73,85h6.87v6.69h-6.87a2.69,2.69,0,0,0-2.67,2.28,36.42,36.42,0,0,1-2,7.56,2.73,2.73,0,0,0,1.16,3.33l5.94,3.43L204.82,114l-5.91-3.42a2.74,2.74,0,0,0-3.48.66,36.67,36.67,0,0,1-5.53,5.54A2.7,2.7,0,0,0,189.26,120.25Z"></path><path class="cls-1" d="M167,58.35a29.93,29.93,0,1,0,29.87,29.94A29.94,29.94,0,0,0,167,58.35Zm0,54.45a24.52,24.52,0,1,1,24.46-24.51A24.52,24.52,0,0,1,167,112.8Z"></path><path class="cls-2" d="M119.37,155.25a20.16,20.16,0,0,0,0,40.31h0a2.72,2.72,0,0,0,0-5.43,14.73,14.73,0,1,1,14.69-14.73,14.58,14.58,0,0,1-4.55,10.65,2.72,2.72,0,0,0,3.75,3.94,20.16,20.16,0,0,0-13.9-34.74Z"></path><path class="cls-2" d="M160,166.89H150a33,33,0,0,0-2.75-6.72l7.22-7.22a2.73,2.73,0,0,0,0-3.83l-8.22-8.23a2.78,2.78,0,0,0-3.83,0l-7,7.05a31,31,0,0,0-7.46-3.16V134.7a2.7,2.7,0,0,0-2.7-2.71H113.57a2.72,2.72,0,0,0-2.71,2.71v10.08a32.18,32.18,0,0,0-7.07,3L97,140.89a2.8,2.8,0,0,0-3.85,0l-8.21,8.23a2.7,2.7,0,0,0,0,3.83l6.85,6.85a30.36,30.36,0,0,0-3,7.09H78.74a2.69,2.69,0,0,0-2.7,2.69v11.65a2.7,2.7,0,0,0,2.7,2.7H88.81A30.31,30.31,0,0,0,92,191.4l-7,7a2.7,2.7,0,0,0,0,3.83l8.22,8.23a2.81,2.81,0,0,0,3.84,0l7.2-7.23a31.81,31.81,0,0,0,6.69,2.74v10.09a2.72,2.72,0,0,0,2.71,2.71h11.61a2.7,2.7,0,0,0,2.7-2.71V206a29.84,29.84,0,0,0,7.08-2.94l7.41,7.43a2.82,2.82,0,0,0,3.85,0l8.21-8.23a2.74,2.74,0,0,0,0-3.83L147,191a32.5,32.5,0,0,0,3-7.09h10a2.7,2.7,0,0,0,2.7-2.71V169.58A2.69,2.69,0,0,0,160,166.89Zm-2.7,11.62h-9.49a2.71,2.71,0,0,0-2.66,2.17,26.64,26.64,0,0,1-3.83,9.26,2.72,2.72,0,0,0,.33,3.41l7,7-4.38,4.39-7-7a2.7,2.7,0,0,0-3.43-.33,25.81,25.81,0,0,1-9.24,3.84,2.72,2.72,0,0,0-2.16,2.66v9.5h-6.19v-9.5a2.72,2.72,0,0,0-2.17-2.66,26,26,0,0,1-8.9-3.65,2.73,2.73,0,0,0-3.39.37L95,204.76l-4.38-4.39,6.66-6.68a2.7,2.7,0,0,0,.31-3.45,26.2,26.2,0,0,1-4-9.56,2.71,2.71,0,0,0-2.66-2.16H81.44V172.3h9.49a2.69,2.69,0,0,0,2.65-2.16,26.37,26.37,0,0,1,3.85-9.25,2.72,2.72,0,0,0-.34-3.41L90.66,151,95,146.64l6.42,6.43a2.7,2.7,0,0,0,3.41.35,26.51,26.51,0,0,1,9.24-3.85,2.7,2.7,0,0,0,2.17-2.65v-9.5h6.19v9.5a2.7,2.7,0,0,0,2.16,2.65,26.22,26.22,0,0,1,9.55,4.05,2.73,2.73,0,0,0,3.46-.32l6.65-6.66,4.39,4.39-6.8,6.81a2.71,2.71,0,0,0-.36,3.38,26.3,26.3,0,0,1,3.64,8.92,2.7,2.7,0,0,0,2.66,2.16h9.49Z"></path><path class="cls-2" d="M78.7,141.79a2,2,0,0,0,2-2l.18-8.83a26.51,26.51,0,0,0,6-2.36l6,6.29a2.06,2.06,0,0,0,1.44.63,2.08,2.08,0,0,0,1.47-.56l7.08-6.82a2.06,2.06,0,0,0,0-2.9l-6-6.29a26.21,26.21,0,0,0,2.73-6.23l9,.2a2,2,0,0,0,1.47-.58,2,2,0,0,0,.62-1.43l.21-9.84A2,2,0,0,0,109,99l-9-.19a26.23,26.23,0,0,0-2.46-6.34l6.28-6a2.07,2.07,0,0,0,.06-2.89L97,76.44a2,2,0,0,0-1.43-.64,2,2,0,0,0-1.47.57l-6.28,6A26.83,26.83,0,0,0,82,79.79L82.16,71a2,2,0,0,0-.56-1.46,2,2,0,0,0-1.44-.63l-9.81-.21h0a2.05,2.05,0,0,0-2,2l-.18,8.63a25.68,25.68,0,0,0-6.66,2.54l-6-6.28A2,2,0,0,0,54,74.94a1.49,1.49,0,0,0-1.47.56L45.4,82.31a2.07,2.07,0,0,0-.07,2.91l6,6.28a26,26,0,0,0-2.73,6.23l-8.36-.17h0a2.05,2.05,0,0,0-2,2L38,109.4a2,2,0,0,0,2,2.09l8.35.17A26.39,26.39,0,0,0,50.81,118l-6.27,6a2.06,2.06,0,0,0-.07,2.89l6.8,7.1a2.11,2.11,0,0,0,1.45.62,1.73,1.73,0,0,0,1.46-.57l6.26-6A25.7,25.7,0,0,0,67,130.88l-.18,8.63a2.07,2.07,0,0,0,2,2.1l9.83.18ZM76.85,129.3l-.16,8.36L71,137.55l.16-8.22a2,2,0,0,0-1.63-2.05,22.27,22.27,0,0,1-8.14-3.5,2.06,2.06,0,0,0-2.59.21l-6,5.72-4-4.14,6-5.74a2,2,0,0,0,.31-2.56,22.54,22.54,0,0,1-3.11-8,2,2,0,0,0-2-1.68l-7.93-.17.13-5.73,7.91.16a2,2,0,0,0,2-1.59,22.73,22.73,0,0,1,3.42-7.85,2,2,0,0,0-.2-2.59l-5.72-6,4.14-4,5.71,6a2,2,0,0,0,2.57.33A22.07,22.07,0,0,1,70.44,83a2,2,0,0,0,1.69-2l.18-8.23,5.72.12-.17,8.39a2,2,0,0,0,1.57,2A22.09,22.09,0,0,1,87,86.7a2,2,0,0,0,2.58-.22l6-5.73,4,4.13-6,5.74a2.05,2.05,0,0,0-.31,2.58,22.31,22.31,0,0,1,3.09,8,2.07,2.07,0,0,0,2,1.68l8.62.18-.13,5.73-8.61-.17h0a2,2,0,0,0-2,1.61,22.26,22.26,0,0,1-3.42,7.84,2.07,2.07,0,0,0,.21,2.6l5.72,5.95-4.13,4-5.71-6a2.08,2.08,0,0,0-2.58-.32,22.26,22.26,0,0,1-7.66,3A2.05,2.05,0,0,0,76.85,129.3Z"></path><path class="cls-2" d="M85.13,94.68a15.21,15.21,0,1,0-.44,21.55h0A15.31,15.31,0,0,0,85.13,94.68Zm-3.29,18.59a11.12,11.12,0,1,1,.32-15.76A11.14,11.14,0,0,1,81.84,113.27Z"></path></svg> 