<?xml version="1.0" encoding="UTF-8"?> <!-- Generator: Adobe Illustrator 22.1.0, SVG Export Plug-In . SVG Version: 6.00 Build 0) --> <svg xmlns="http://www.w3.org/2000/svg" xmlns:xlink="http://www.w3.org/1999/xlink" id="Layer_1" x="0px" y="0px" viewBox="0 0 256 256" style="enable-background:new 0 0 256 256;" xml:space="preserve"> <style type="text/css"> .st0{fill:#FFFFFF;} </style> <g> <path class="st0" d="M191.2,113.3c-3.9,0-7.6,0.8-11.3,2.2c1.2-3.8,1.8-7.9,1.8-12.1c0-22.2-18-40.3-40.2-40.3 c-18.7,0-34.8,12.7-39.3,31.1c-3.3-1.3-6.7-2-10.2-2c-12.5,0-23.5,8.8-26.7,21.1c-15,0-27.2,12-27.2,26.9c0,14.8,12,26.9,27.1,26.9 h49.8c1.5,0,2.7-1.2,2.7-2.7c0-1.5-1.2-2.7-2.7-2.7l-50.1,0c-11.8,0-21.5-9.7-21.5-21.5c0-11.8,9.8-21.5,21.5-21.5 c2.9,0.3,5.4-1.5,6.1-4.3c2.2-9.7,11-16.8,20.9-16.8c2.8,0,5.6,0.5,8.2,1.6c1.5,0.6,3.2,0.5,4.6-0.2c1.5-0.7,2.5-2.1,2.9-3.7 c3.7-15.8,17.6-26.8,33.9-26.8c19.2,0,34.8,15.7,34.8,34.9c0,3.6-0.5,7.1-1.6,10.4c-0.6,2.1,0,4.4,1.6,5.8c1.6,1.5,4,1.8,6,0.9 c2.8-1.3,5.8-1.9,8.9-1.9c11.8,0,21.5,9.6,21.5,21.5c0,9.4-6.3,17.9-15.3,20.6c-1.4,0.4-2.2,1.9-1.8,3.4c0.4,1.4,1.9,2.2,3.4,1.8 c11.2-3.4,19.1-14,19.1-25.7C218,125.4,206,113.3,191.2,113.3z"></path> <path class="st0" d="M153.1,136.9c-9.6,1.9-15.9,11.3-14,21c1.7,8.5,9.2,14.4,17.5,14.4c1.1,0,2.3-0.1,3.5-0.3 c1.4-0.3,2.4-1.7,2.1-3.2c-0.3-1.5-1.6-2.4-3.2-2.1c-6.7,1.4-13.3-3.1-14.7-9.8c-1.3-6.7,3.1-13.3,9.8-14.7 c6.8-1.4,13.3,3.1,14.7,9.8c0.7,3.4-0.1,6.8-2,9.6c-0.9,1.2-0.6,2.9,0.7,3.7c1.2,0.9,2.9,0.6,3.8-0.7c2.8-4,3.9-8.9,2.9-13.8 C172.1,141.2,162.7,135,153.1,136.9z"></path> <path class="st0" d="M191.8,140.3c-0.6-0.4-1.3-0.5-2-0.4l-8.3,1.7c-0.9-1.7-2-3.4-3.2-4.9l4.8-7.2c0.8-1.2,0.5-2.9-0.7-3.7 l-8.4-5.6c-0.6-0.4-1.3-0.5-2-0.4c-0.7,0.1-1.3,0.6-1.7,1.1l-4.7,7c-2.1-0.7-4.3-1.1-6.5-1.3l-1.6-8.4c-0.1-0.7-0.6-1.3-1.2-1.7 c-0.6-0.4-1.3-0.6-2-0.4l-9.9,2c-1.5,0.3-2.4,1.7-2.1,3.2l1.7,8.4c-1.9,1-3.6,2.1-5.2,3.5l-6.8-4.5c-0.6-0.4-1.3-0.6-2-0.4 c-0.7,0.1-1.3,0.5-1.7,1.1l-5.6,8.4c-0.8,1.2-0.5,2.9,0.8,3.7l6.8,4.5c-0.6,2-1.1,4.1-1.2,6.1l-8.3,1.7c-1.5,0.3-2.4,1.7-2.1,3.2 l2,9.9c0.1,0.7,0.6,1.3,1.1,1.7c0.6,0.4,1.3,0.5,2,0.4l8.3-1.7c1,2,2.3,3.8,3.7,5.5l-4.7,7c-0.8,1.2-0.5,2.9,0.7,3.7l8.4,5.6 c0.6,0.4,1.3,0.5,2,0.4c0.7-0.1,1.3-0.6,1.7-1.1l4.8-7.2c1.9,0.6,3.8,1,5.8,1.1l1.7,8.4c0.1,0.7,0.6,1.3,1.1,1.7 c0.4,0.3,1,0.5,1.5,0.5c0.2,0,0.3,0,0.5-0.1l9.9-2c1.4-0.3,2.4-1.7,2.1-3.2l-1.7-8.4c1.9-1,3.6-2.1,5.2-3.5l7.4,4.9 c0.6,0.4,1.3,0.5,2,0.4c0.7-0.1,1.3-0.6,1.7-1.2l5.6-8.4c0.8-1.2,0.5-2.9-0.8-3.7l-7.4-4.9c0.6-2,1-4,1.2-6.1l8.3-1.7 c1.4-0.3,2.4-1.7,2.1-3.2l-2-9.9C192.8,141.3,192.4,140.7,191.8,140.3z M181.3,151.8c-1.3,0.2-2.2,1.4-2.2,2.6 c0,2.9-0.6,5.7-1.7,8.4c-0.5,1.2-0.1,2.6,1,3.3l6.9,4.6l-2.6,3.9l-6.9-4.6c-1.1-0.7-2.5-0.6-3.4,0.3c-2,2-4.4,3.7-7.1,4.8 c-1.2,0.5-1.9,1.8-1.6,3l1.5,7.8l-4.6,0.9l-1.5-7.8c-0.3-1.2-1.3-2.2-2.6-2.2c-2.8,0-5.5-0.5-8.1-1.6c-0.3-0.1-0.7-0.2-1-0.2 c-0.9,0-1.7,0.4-2.2,1.2l-4.5,6.7l-3.9-2.6l4.4-6.5c0.7-1.1,0.6-2.5-0.3-3.4c-2.2-2.1-3.8-4.6-5-7.4c-0.5-1.2-1.8-1.9-3-1.6 l-7.8,1.6l-0.9-4.6l7.7-1.6c1.3-0.3,2.2-1.3,2.2-2.6c0-2.9,0.6-5.7,1.7-8.4c0.5-1.2,0.1-2.5-1-3.3l-6.3-4.2l2.6-3.9l6.3,4.2 c1.1,0.7,2.5,0.6,3.4-0.3c2.1-2.1,4.5-3.7,7.1-4.8c1.2-0.5,1.8-1.7,1.6-3l-1.5-7.8l4.6-0.9l1.5,7.8c0.3,1.3,1.4,2.2,2.6,2.2 c3,0,5.9,0.6,8.7,1.8c1.2,0.5,2.6,0.1,3.3-1l4.4-6.5l3.9,2.6l-4.4,6.7c-0.7,1.1-0.6,2.5,0.3,3.4c2,2,3.5,4.3,4.6,6.9 c0.5,1.2,1.8,1.8,3,1.6l7.8-1.5l0.9,4.6L181.3,151.8z"></path> <path class="st0" d="M166,109.4c0,1.5,1.2,2.7,2.7,2.7c1.5,0,2.7-1.2,2.7-2.7c0-18.8-11-33.1-28.1-36.2c-1.5-0.3-2.9,0.7-3.1,2.2 c-0.3,1.5,0.7,2.9,2.2,3.1C156.7,81.2,166,93.3,166,109.4z"></path> </g> </svg> 