<?xml version="1.0" encoding="UTF-8"?> <!-- Generator: Adobe Illustrator 22.1.0, SVG Export Plug-In . SVG Version: 6.00 Build 0) --> <svg xmlns="http://www.w3.org/2000/svg" xmlns:xlink="http://www.w3.org/1999/xlink" id="Layer_1" x="0px" y="0px" viewBox="0 0 256 256" style="enable-background:new 0 0 256 256;" xml:space="preserve"> <style type="text/css"> .st0{fill:#FFFFFF;} </style> <g> <path class="st0" d="M198.7,125.8l-3.7-6.3c1.1-1,2.1-2,3.1-3.1l6.3,3.6c0.6,0.4,1.4,0.5,2.1,0.3c0.7-0.2,1.3-0.6,1.7-1.3l6-10.5 c0.7-1.3,0.3-2.9-1-3.7l-6.3-3.7c0.4-1.4,0.8-2.8,1.1-4.2h7.3c1.5,0,2.7-1.2,2.7-2.7V82.2c0-1.5-1.2-2.7-2.7-2.7H208 c-0.3-1.4-0.7-2.8-1.1-4.2l6.3-3.7c1.3-0.8,1.7-2.4,1-3.7l-6-10.5c-0.4-0.6-0.9-1.1-1.7-1.3c-0.7-0.2-1.4-0.1-2.1,0.3l-6.3,3.7 c-1-1.1-2-2.1-3.1-3.1l3.7-6.3c0.7-1.3,0.3-3-1-3.7l-10.5-6c-0.6-0.4-1.4-0.4-2.1-0.3c-0.7,0.2-1.3,0.7-1.7,1.3l-3.6,6.3 c-1.4-0.4-2.8-0.8-4.2-1.1v-7.3c0-1.5-1.2-2.7-2.7-2.7H161c-1.5,0-2.7,1.2-2.7,2.7v7.3c-1.4,0.3-2.8,0.7-4.2,1.1l-3.6-6.3 c-0.4-0.6-1-1.1-1.7-1.3c-0.7-0.2-1.4-0.1-2.1,0.3l-10.5,6c-1.3,0.7-1.7,2.4-1,3.7l3.6,6.3c-1.1,1-2.1,2-3.1,3.1l-6.3-3.7 c-0.6-0.3-1.4-0.4-2-0.3c-0.7,0.2-1.3,0.6-1.7,1.3l-6,10.5c-0.8,1.3-0.3,3,1,3.7l6.3,3.7c-0.4,1.4-0.8,2.8-1.1,4.2h-7.3 c-1.5,0-2.7,1.2-2.7,2.7v12.1c0,1.5,1.2,2.7,2.7,2.7h7.3c0.3,1.4,0.7,2.8,1.1,4.2l-6.3,3.7c-1.3,0.7-1.8,2.4-1,3.7l6,10.5 c0.4,0.6,0.9,1.1,1.7,1.3c0.7,0.2,1.4,0.1,2-0.3l6.3-3.7c1,1.1,2,2.1,3.1,3.1l-3.6,6.3c-0.7,1.3-0.3,3,1,3.7l10.5,6 c0.6,0.4,1.4,0.5,2.1,0.3c0.7-0.2,1.3-0.6,1.7-1.3l3.6-6.3c1.4,0.4,2.8,0.8,4.2,1.1v7.3c0,1.5,1.2,2.7,2.7,2.7H173 c1.5,0,2.7-1.2,2.7-2.7v-7.3c1.4-0.3,2.8-0.7,4.2-1.1l3.6,6.3c0.4,0.6,1,1.1,1.7,1.3c0.7,0.2,1.4,0.1,2.1-0.3l10.5-6 C199,128.8,199.5,127.1,198.7,125.8z M189.3,120.3l3.4,5.9l-5.8,3.3l-3.4-5.9c-0.7-1.2-2.1-1.6-3.3-1.2c-2.4,0.9-4.9,1.6-7.5,2 c-1.3,0.2-2.3,1.3-2.3,2.7v6.9h-6.7v-6.9c0-1.3-1-2.5-2.3-2.7c-2.6-0.4-5.2-1.1-7.5-2c-1.3-0.5-2.7,0-3.3,1.2l-3.4,5.9l-5.8-3.4 l3.4-5.9c0.7-1.2,0.4-2.6-0.6-3.5c-2.1-1.7-3.9-3.5-5.5-5.5c-0.8-1-2.3-1.3-3.5-0.7l-5.9,3.4l-3.3-5.8l5.9-3.4 c1.2-0.7,1.7-2.1,1.2-3.3c-0.9-2.4-1.6-5-2-7.5c-0.2-1.3-1.3-2.3-2.7-2.3h-6.9v-6.7h6.9c1.3,0,2.5-1,2.7-2.3c0.4-2.6,1.1-5.1,2-7.6 c0.5-1.2,0-2.7-1.2-3.3l-5.9-3.4l3.3-5.8l5.9,3.4c1.1,0.7,2.6,0.4,3.5-0.6c1.6-2,3.5-3.9,5.5-5.5c1-0.8,1.3-2.3,0.6-3.5l-3.4-5.9 l5.8-3.4l3.4,6c0.7,1.1,2.1,1.7,3.3,1.2c2.4-0.9,5-1.6,7.5-2c1.3-0.2,2.3-1.3,2.3-2.7v-6.9h6.7v6.9c0,1.3,1,2.5,2.3,2.7 c2.6,0.4,5.1,1.1,7.5,2c1.3,0.5,2.7,0,3.3-1.2l3.4-5.9l5.8,3.3l-3.4,5.9c-0.7,1.1-0.4,2.6,0.6,3.5c2,1.6,3.9,3.5,5.5,5.5 c0.9,1.1,2.3,1.3,3.5,0.6l5.9-3.4l3.3,5.8l-5.9,3.4c-1.1,0.7-1.6,2.1-1.2,3.3c0.9,2.4,1.6,4.9,2,7.6c0.2,1.3,1.3,2.3,2.7,2.3h6.9 v6.7h-6.9c-1.3,0-2.5,1-2.7,2.3c-0.4,2.6-1.1,5.2-2,7.6c-0.5,1.2,0,2.7,1.2,3.3l5.9,3.4l-3.3,5.8l-5.9-3.4 c-1.1-0.7-2.6-0.4-3.5,0.7c-1.7,2.1-3.5,3.9-5.5,5.5C188.9,117.6,188.6,119.1,189.3,120.3z"></path> <path class="st0" d="M167,58.4c-16.5,0-29.9,13.4-29.9,29.9c0,16.5,13.4,29.9,29.9,29.9c16.5,0,29.9-13.4,29.9-29.9 C196.9,71.8,183.5,58.4,167,58.4z M167,112.8c-13.5,0-24.5-11-24.5-24.5c0-13.5,11-24.5,24.5-24.5c13.5,0,24.5,11,24.5,24.5 C191.4,101.8,180.5,112.8,167,112.8z"></path> <path class="st0" d="M119.4,155.3c-11.1,0-20.1,9.1-20.1,20.2c0,11.1,9,20.1,20.1,20.1h0c1.5,0,2.7-1.2,2.7-2.7 c0-1.5-1.2-2.7-2.7-2.7c-8.1,0-14.7-6.6-14.7-14.7c0-8.1,6.6-14.7,14.7-14.7c8.1,0,14.7,6.6,14.7,14.7c0,4.1-1.6,7.9-4.6,10.6 c-1.1,1-1.1,2.8-0.1,3.8c1,1.1,2.8,1.1,3.8,0.1c4-3.8,6.2-9,6.2-14.6C139.5,164.3,130.5,155.3,119.4,155.3z"></path> <path class="st0" d="M160,166.9H150c-0.7-2.3-1.6-4.6-2.7-6.7l7.2-7.2c1-1.1,1-2.8,0-3.8l-8.2-8.2c-1-1-2.8-1-3.8,0l-7,7.1 c-2.3-1.4-4.8-2.4-7.5-3.2v-10.1c0-1.5-1.2-2.7-2.7-2.7h-11.6c-1.5,0-2.7,1.2-2.7,2.7v10.1c-2.5,0.7-4.8,1.7-7.1,3l-6.8-6.9 c-1-1-2.8-1-3.8,0l-8.2,8.2c-1.1,1.1-1.1,2.8,0,3.8l6.8,6.8c-1.3,2.2-2.3,4.6-2.9,7.1H78.7c-1.5,0-2.7,1.2-2.7,2.7v11.6 c0,1.5,1.2,2.7,2.7,2.7h10.1c0.7,2.6,1.8,5.1,3.1,7.5l-7,7.1c-1.1,1.1-1.1,2.8,0,3.8l8.2,8.2c1,1,2.8,1,3.8,0l7.2-7.2 c2.1,1.2,4.4,2.1,6.7,2.7v10.1c0,1.5,1.2,2.7,2.7,2.7h11.6c1.5,0,2.7-1.2,2.7-2.7V206c2.5-0.7,4.9-1.7,7.1-2.9l7.4,7.4 c1,1,2.8,1,3.8,0l8.2-8.2c1-1.1,1-2.8,0-3.8L147,191c1.3-2.2,2.2-4.6,2.9-7.1H160c1.5,0,2.7-1.2,2.7-2.7v-11.6 C162.7,168.1,161.5,166.9,160,166.9z M157.3,178.5h-9.5c-1.3,0-2.4,0.9-2.7,2.2c-0.7,3.3-2,6.4-3.8,9.3c-0.7,1.1-0.6,2.5,0.3,3.4 l7,7l-4.4,4.4l-7-7c-0.9-0.9-2.4-1.1-3.4-0.3c-2.8,1.9-5.9,3.2-9.2,3.8c-1.3,0.3-2.2,1.4-2.2,2.7v9.5h-6.2v-9.5 c0-1.3-0.9-2.4-2.2-2.7c-3.1-0.6-6.1-1.9-8.9-3.6c-1.1-0.7-2.5-0.5-3.4,0.4l-6.8,6.8l-4.4-4.4l6.7-6.7c0.9-0.9,1.1-2.4,0.3-3.5 c-2-2.9-3.3-6.1-4-9.6c-0.3-1.3-1.4-2.2-2.7-2.2h-9.5v-6.2h9.5c1.3,0,2.4-0.9,2.6-2.2c0.7-3.3,2-6.4,3.8-9.2 c0.7-1.1,0.6-2.5-0.3-3.4l-6.4-6.4l4.4-4.4l6.4,6.4c0.9,0.9,2.3,1.1,3.4,0.3c2.8-1.9,5.9-3.2,9.2-3.8c1.3-0.3,2.2-1.4,2.2-2.6v-9.5 h6.2v9.5c0,1.3,0.9,2.4,2.2,2.6c3.4,0.7,6.6,2.1,9.5,4.1c1.1,0.7,2.5,0.6,3.5-0.3l6.6-6.7l4.4,4.4l-6.8,6.8c-0.9,0.9-1,2.3-0.4,3.4 c1.8,2.8,3,5.7,3.6,8.9c0.3,1.3,1.4,2.2,2.7,2.2h9.5V178.5z"></path> <path class="st0" d="M78.7,141.8c1.1,0,2-0.9,2-2l0.2-8.8c2.1-0.5,4.1-1.3,6-2.4l6,6.3c0.4,0.4,0.9,0.6,1.4,0.6 c0.6,0,1.1-0.2,1.5-0.6l7.1-6.8c0.8-0.8,0.8-2.1,0.1-2.9l-6-6.3c1.2-2,2.1-4,2.7-6.2l9,0.2c0.8-0.1,1.1-0.2,1.5-0.6 c0.4-0.4,0.6-0.9,0.6-1.4l0.2-9.8c0-1.1-0.9-2.1-2-2.1l-9.1-0.2c-0.6-2.2-1.4-4.4-2.5-6.3l6.3-6c0.8-0.8,0.8-2.1,0.1-2.9L97,76.4 c-0.4-0.4-0.9-0.6-1.4-0.6c-0.7,0-1.1,0.2-1.5,0.6l-6.3,6c-1.8-1.1-3.8-2-5.9-2.6l0.2-8.8c0-0.5-0.2-1.1-0.6-1.5 c-0.4-0.4-0.9-0.6-1.4-0.6l-9.8-0.2h0c-1.1,0-2,0.9-2,2l-0.2,8.6c-2.3,0.5-4.6,1.4-6.7,2.5l-6-6.3c-0.4-0.4-0.9-0.6-1.4-0.6 c-0.6-0.2-1.1,0.2-1.5,0.6l-7.1,6.8c-0.8,0.8-0.9,2.1-0.1,2.9l6,6.3c-1.2,1.9-2.1,4-2.7,6.2l-8.4-0.2h0c-1.1,0-2,0.9-2.1,2 l-0.2,9.8c0,1.1,0.9,2.1,2,2.1l8.4,0.2c0.5,2.2,1.4,4.3,2.5,6.3l-6.3,6c-0.8,0.8-0.8,2.1-0.1,2.9l6.8,7.1c0.4,0.4,0.9,0.6,1.4,0.6 c0.6,0.1,1.1-0.2,1.5-0.6l6.3-6c2.1,1.3,4.3,2.2,6.6,2.8l-0.2,8.6c0,0.5,0.2,1.1,0.6,1.5c0.4,0.4,0.9,0.6,1.4,0.6L78.7,141.8 L78.7,141.8z M76.9,129.3l-0.2,8.4l-5.7-0.1l0.2-8.2c0-1-0.7-1.9-1.6-2.1c-2.9-0.6-5.7-1.8-8.1-3.5c-0.8-0.5-1.9-0.5-2.6,0.2 l-6,5.7l-4-4.1l6-5.7c0.7-0.7,0.8-1.7,0.3-2.6c-1.5-2.4-2.6-5.1-3.1-8c-0.2-1-1-1.7-2-1.7l-7.9-0.2l0.1-5.7l7.9,0.2 c1,0.1,1.8-0.7,2-1.6c0.7-2.9,1.8-5.5,3.4-7.8c0.6-0.8,0.5-1.9-0.2-2.6l-5.7-6l4.1-4l5.7,6c0.7,0.7,1.8,0.8,2.6,0.3 c2.5-1.6,5.3-2.7,8.3-3.2c1-0.2,1.7-1,1.7-2l0.2-8.2l5.7,0.1l-0.2,8.4c0,1,0.6,1.8,1.6,2c2.7,0.6,5.2,1.8,7.5,3.4 c0.8,0.6,1.9,0.5,2.6-0.2l6-5.7l4,4.1l-6,5.7c-0.7,0.7-0.8,1.8-0.3,2.6c1.5,2.4,2.6,5.1,3.1,8c0.2,1,1,1.7,2,1.7l8.6,0.2l-0.1,5.7 l-8.6-0.2h0c-1,0-1.8,0.7-2,1.6c-0.6,2.8-1.8,5.5-3.4,7.8c-0.5,0.8-0.5,1.9,0.2,2.6l5.7,6l-4.1,4l-5.7-6c-0.7-0.7-1.8-0.8-2.6-0.3 c-2.3,1.5-4.9,2.5-7.7,3C77.6,127.5,76.9,128.3,76.9,129.3z"></path> <path class="st0" d="M85.1,94.7c-5.8-6-15.5-6.2-21.5-0.4c-6,5.8-6.2,15.5-0.4,21.5c3,3.1,7,4.7,11,4.7c3.8,0,7.6-1.4,10.5-4.2v0 C90.7,110.4,90.9,100.8,85.1,94.7z M81.8,113.3c-4.4,4.2-11.5,4.1-15.7-0.3c-4.2-4.4-4.1-11.5,0.3-15.8c2.2-2.1,4.9-3.1,7.7-3.1 c2.9,0,5.9,1.1,8,3.4C86.4,102,86.3,109,81.8,113.3z"></path> </g> </svg> 