<?xml version="1.0" encoding="UTF-8"?>
<svg xmlns="http://www.w3.org/2000/svg" xmlns:xlink="http://www.w3.org/1999/xlink" width="20px" height="20px" viewBox="0 0 20 20" version="1.1">
<g id="surface1">
<path style=" stroke:none;fill-rule:nonzero;fill:rgb(100%,100%,100%);fill-opacity:1;" d="M 12.074219 9.664062 C 11.890625 8.519531 10.808594 7.738281 9.664062 7.925781 C 8.519531 8.113281 7.738281 9.191406 7.925781 10.335938 C 8.113281 11.480469 9.191406 12.261719 10.335938 12.074219 C 11.484375 11.886719 12.261719 10.808594 12.074219 9.664062 Z M 12.074219 9.664062 "/>
<path style=" stroke:none;fill-rule:nonzero;fill:rgb(100%,100%,100%);fill-opacity:1;" d="M 14.90625 6.289062 C 14.789062 5.992188 14.65625 5.789062 14.4375 5.5625 C 14.21875 5.34375 14.007812 5.203125 13.710938 5.09375 C 13.492188 5.007812 13.15625 4.90625 12.539062 4.875 C 11.875 4.84375 11.679688 4.835938 9.992188 4.835938 C 8.304688 4.835938 8.109375 4.84375 7.445312 4.875 C 6.828125 4.90625 6.5 5.007812 6.273438 5.09375 C 5.976562 5.210938 5.773438 5.34375 5.546875 5.5625 C 5.328125 5.78125 5.1875 5.992188 5.078125 6.289062 C 4.992188 6.507812 4.890625 6.84375 4.859375 7.460938 C 4.828125 8.125 4.820312 8.320312 4.820312 10.007812 C 4.820312 11.695312 4.828125 11.890625 4.859375 12.554688 C 4.890625 13.171875 4.992188 13.5 5.078125 13.726562 C 5.195312 14.023438 5.328125 14.226562 5.546875 14.453125 C 5.765625 14.671875 5.976562 14.8125 6.273438 14.921875 C 6.492188 15.007812 6.828125 15.109375 7.445312 15.140625 C 8.109375 15.171875 8.304688 15.179688 9.992188 15.179688 C 11.671875 15.179688 11.875 15.171875 12.539062 15.140625 C 13.15625 15.109375 13.484375 15.007812 13.710938 14.921875 C 14.007812 14.804688 14.210938 14.671875 14.4375 14.453125 C 14.65625 14.234375 14.796875 14.023438 14.90625 13.726562 C 14.992188 13.507812 15.09375 13.171875 15.125 12.554688 C 15.15625 11.890625 15.164062 11.695312 15.164062 10.007812 C 15.164062 8.320312 15.15625 8.125 15.125 7.460938 C 15.09375 6.84375 14.992188 6.507812 14.90625 6.289062 Z M 10 13.234375 C 8.210938 13.234375 6.765625 11.789062 6.765625 10 C 6.765625 8.210938 8.210938 6.765625 10 6.765625 C 11.789062 6.765625 13.234375 8.210938 13.234375 10 C 13.234375 11.789062 11.789062 13.234375 10 13.234375 Z M 13.359375 7.398438 C 12.945312 7.398438 12.601562 7.0625 12.601562 6.640625 C 12.601562 6.21875 12.9375 5.882812 13.359375 5.882812 C 13.773438 5.882812 14.117188 6.21875 14.117188 6.640625 C 14.117188 7.0625 13.78125 7.398438 13.359375 7.398438 Z M 13.359375 7.398438 "/>
<path style=" stroke:none;fill-rule:nonzero;fill:rgb(100%,100%,100%);fill-opacity:1;" d="M 10 0 C 4.476562 0 0 4.476562 0 10 C 0 15.523438 4.476562 20 10 20 C 15.523438 20 20 15.523438 20 10 C 20 4.476562 15.523438 0 10 0 Z M 16.257812 12.59375 C 16.226562 13.265625 16.117188 13.71875 15.96875 14.125 C 15.804688 14.539062 15.59375 14.890625 15.242188 15.242188 C 14.890625 15.59375 14.539062 15.804688 14.125 15.96875 C 13.726562 16.125 13.265625 16.234375 12.59375 16.257812 C 11.921875 16.289062 11.710938 16.296875 10 16.296875 C 8.289062 16.296875 8.078125 16.289062 7.40625 16.257812 C 6.734375 16.226562 6.28125 16.117188 5.875 15.96875 C 5.460938 15.804688 5.109375 15.59375 4.757812 15.242188 C 4.40625 14.890625 4.195312 14.539062 4.03125 14.125 C 3.875 13.726562 3.765625 13.265625 3.742188 12.59375 C 3.710938 11.921875 3.703125 11.710938 3.703125 10 C 3.703125 8.289062 3.710938 8.078125 3.742188 7.40625 C 3.773438 6.734375 3.882812 6.28125 4.03125 5.875 C 4.195312 5.460938 4.40625 5.109375 4.757812 4.757812 C 5.109375 4.40625 5.460938 4.195312 5.875 4.03125 C 6.273438 3.875 6.734375 3.765625 7.40625 3.742188 C 8.078125 3.710938 8.289062 3.703125 10 3.703125 C 11.710938 3.703125 11.921875 3.710938 12.59375 3.742188 C 13.265625 3.773438 13.71875 3.882812 14.125 4.03125 C 14.539062 4.195312 14.890625 4.40625 15.242188 4.757812 C 15.59375 5.109375 15.804688 5.460938 15.96875 5.875 C 16.125 6.273438 16.234375 6.734375 16.257812 7.40625 C 16.289062 8.078125 16.296875 8.289062 16.296875 10 C 16.296875 11.710938 16.289062 11.921875 16.257812 12.59375 Z M 16.257812 12.59375 "/>
</g>
</svg>
