<?xml version="1.0" encoding="UTF-8"?> <!-- Generator: Adobe Illustrator 23.1.0, SVG Export Plug-In . SVG Version: 6.00 Build 0) --> <svg xmlns="http://www.w3.org/2000/svg" xmlns:xlink="http://www.w3.org/1999/xlink" id="Layer_1" x="0px" y="0px" viewBox="0 0 256 256" style="enable-background:new 0 0 256 256;" xml:space="preserve"> <style type="text/css"> .st0{fill:#FFFFFF;} </style> <g> <path class="st0" d="M94.3,60.6H81.4v-3.2c0-1.8-1.4-3.2-3.2-3.2S75,55.6,75,57.4v3.2H62.2c-1.8,0-3.2,1.4-3.2,3.2 c0,1.8,1.4,3.2,3.2,3.2h21.5c-1.2,3.4-2.9,6.6-5.1,9.4c-1.5-1.5-2.9-3.1-4.1-4.8c-1-1.5-3-1.9-4.5-0.9c-1.5,1-1.9,3-0.9,4.4 c1.5,2.1,3.1,4,4.9,5.8c-2.9,2.4-6.2,4.2-9.7,5.4c-1.7,0.6-2.6,2.4-2,4.1c0.6,1.7,2.4,2.6,4.1,2l0,0c4.6-1.5,8.9-3.9,12.5-7.1 c3.3,2.7,6.9,5,10.8,6.9c1.6,0.8,3.5,0.1,4.3-1.4c0.8-1.6,0.1-3.5-1.4-4.3c-3.2-1.6-6.3-3.6-9.1-5.9c3.2-4.1,5.6-8.7,7-13.7h3.9 c1.8,0,3.2-1.4,3.2-3.2C97.5,62,96.1,60.6,94.3,60.6z"></path> <path class="st0" d="M107.1,41.3H49.3c-7.1,0-12.8,5.7-12.8,12.8v38.5c0,7.1,5.7,12.8,12.8,12.8H90l15.2,12.1 c1.4,1.1,3.4,0.9,4.5-0.5c0.5-0.6,0.7-1.3,0.7-2v-10c5.7-1.5,9.6-6.6,9.6-12.4V54.2C120,47.1,114.2,41.3,107.1,41.3z M113.6,92.7 c0,3.5-2.9,6.4-6.4,6.4c-1.8,0-3.2,1.4-3.2,3.2v6.2l-10.8-8.7c-0.6-0.5-1.3-0.7-2-0.7H49.3c-3.5,0-6.4-2.9-6.4-6.4V54.2 c0-3.5,2.9-6.4,6.4-6.4h57.8c3.5,0,6.4,2.9,6.4,6.4V92.7z"></path> <path class="st0" d="M110.3,150.9v-10c0-1.8-1.4-3.2-3.2-3.2c-0.7,0-1.4,0.2-2,0.7L90,150.5H49.3c-7.1,0-12.8,5.7-12.8,12.8v38.5 c0,7.1,5.7,12.8,12.8,12.8h57.8c7.1,0,12.8-5.7,12.8-12.8v-38.5C120,157.5,116,152.4,110.3,150.9z M113.6,201.8 c0,3.5-2.9,6.4-6.4,6.4H49.3c-3.5,0-6.4-2.9-6.4-6.4v-38.5c0-3.5,2.9-6.4,6.4-6.4h41.7c0.7,0,1.4-0.2,2-0.7l10.8-8.7v6.2 c0,1.8,1.4,3.2,3.2,3.2c3.5,0,6.4,2.9,6.4,6.4V201.8z"></path> <path class="st0" d="M206.7,95.9H166l-15.2-12.1c-1.4-1.1-3.4-0.9-4.5,0.5c-0.5,0.6-0.7,1.3-0.7,2v10c-5.7,1.5-9.6,6.6-9.6,12.4 v38.5c0,5.9,4,11,9.6,12.4v10c0,1.8,1.4,3.2,3.2,3.2c0.7,0,1.4-0.2,2-0.7l15.2-12.1h40.6c7.1,0,12.8-5.7,12.8-12.8v-38.5 C219.5,101.6,213.8,95.9,206.7,95.9z M213.1,147.3c0,3.5-2.9,6.4-6.4,6.4h-41.7c-0.7,0-1.4,0.2-2,0.7l-10.8,8.7v-6.2 c0-1.8-1.4-3.2-3.2-3.2c-3.5,0-6.4-2.9-6.4-6.4v-38.5c0-3.5,2.9-6.4,6.4-6.4c1.8,0,3.2-1.4,3.2-3.2v-6.2l10.8,8.7 c0.6,0.5,1.3,0.7,2,0.7h41.7c3.5,0,6.4,2.9,6.4,6.4V147.3z"></path> <path class="st0" d="M180.7,110.5c-0.9-1.6-3-2.1-4.6-1.2c-0.5,0.3-0.9,0.7-1.2,1.2l-16.1,32.1c-0.8,1.6-0.1,3.5,1.4,4.3 c1.6,0.8,3.5,0.1,4.3-1.4l13.2-26.4l6,12.1h-6c-1.8,0-3.2,1.4-3.2,3.2s1.4,3.2,3.2,3.2h9.3l3.9,7.9c0.8,1.6,2.7,2.2,4.3,1.4 c1.6-0.8,2.2-2.7,1.4-4.3L180.7,110.5z"></path> <path class="st0" d="M91.1,195.4H75c-3.5,0-6.4-2.9-6.4-6.4s2.9-6.4,6.4-6.4h12.8c1.8,0,3.2-1.4,3.2-3.2c0-1.8-1.4-3.2-3.2-3.2 h-6.4c-1.8,0-3.2-1.5-3.2-3.2s1.5-3.2,3.2-3.2c1.2,0,2.3,0.7,2.9,1.8c0.8,1.6,2.7,2.2,4.3,1.4c1.6-0.8,2.2-2.7,1.4-4.3l0,0 c-2.5-4.7-8.3-6.5-13-4.1c-4.3,2.2-6.2,7.3-4.6,11.8c-7,1.4-11.5,8.1-10.1,15.1c1.2,6,6.5,10.3,12.6,10.3h16.1 c1.8,0,3.2-1.4,3.2-3.2C94.3,196.9,92.9,195.4,91.1,195.4z"></path> </g> </svg> 