<?xml version="1.0" encoding="utf-8"?>
<!-- Generator: Adobe Illustrator 24.0.1, SVG Export Plug-In . SVG Version: 6.00 Build 0)  -->
<svg version="1.1" id="Layer_1" xmlns="http://www.w3.org/2000/svg" xmlns:xlink="http://www.w3.org/1999/xlink" x="0px" y="0px"
	 viewBox="0 0 256 256" style="enable-background:new 0 0 256 256;" xml:space="preserve">
<style type="text/css">
	.st0{fill:#CCCACA;}
	.st1{fill:#FFC800;}
	.st2{fill:#FFFFFF;}
</style>
<path class="st2" d="M128,38c-49.7,0-90,40.3-90,90s40.3,90,90,90s90-40.3,90-90S177.7,38,128,38z M101.8,174.1H79.9v-65.9h21.9
	V174.1z M90.9,99.1h-0.1c-7.4,0-12.1-5.1-12.1-11.4c0-6.5,4.9-11.4,12.4-11.4s12.1,4.9,12.3,11.4C103.3,94,98.5,99.1,90.9,99.1z
	 M180.9,174.1H159v-35.3c0-8.9-3.2-14.9-11.1-14.9c-6.1,0-9.7,4.1-11.2,8c-0.6,1.4-0.7,3.4-0.7,5.3v36.8H114c0,0,0.3-59.8,0-65.9
	h21.9v9.3c2.9-4.5,8.1-10.9,19.8-10.9c14.4,0,25.2,9.4,25.2,29.7V174.1z"/>
</svg>
