<?xml version="1.0" encoding="utf-8"?>
<!-- Generator: Adobe Illustrator 22.1.0, SVG Export Plug-In . SVG Version: 6.00 Build 0)  -->
<svg version="1.1" id="Layer_1" xmlns="http://www.w3.org/2000/svg" xmlns:xlink="http://www.w3.org/1999/xlink" x="0px" y="0px"
	 viewBox="0 0 256 256" style="enable-background:new 0 0 256 256;" xml:space="preserve">
<style type="text/css">
	.st0{fill:#00AABE;}
</style>
<g>
	<path class="st0" d="M190.5,100.5c0-34.5-28.1-62.5-62.5-62.5c-34.5,0-62.5,28.1-62.5,62.5c0,11.6,3.2,23,9.3,32.9l51.6,83.2
		c0.5,0.9,1.4,1.4,2.4,1.4c1,0,2-0.5,2.5-1.4l50.3-84C187.5,122.9,190.5,111.8,190.5,100.5 M176.8,129.6l-47.9,80l-49.2-79.2
		c-5.6-9-8.5-19.3-8.5-29.8c0-31.3,25.5-56.8,56.8-56.8c31.3,0,56.8,25.5,56.8,56.8C184.8,110.8,182,120.8,176.8,129.6L176.8,129.6z
		"/>
	<path class="st0" d="M158,97c0-16.5-13.5-30-30-30c-16.5,0-30,13.5-30,30s13.5,30,30,30C144.5,127,158,113.6,158,97 M128,121.3
		c-13.4,0-24.3-10.9-24.3-24.3s10.9-24.3,24.3-24.3c13.4,0,24.3,10.9,24.3,24.3S141.4,121.3,128,121.3"/>
</g>
</svg>
