<?xml version="1.0" encoding="utf-8"?>
<!-- Generator: Adobe Illustrator 22.1.0, SVG Export Plug-In . SVG Version: 6.00 Build 0)  -->
<svg version="1.1" id="Layer_1" xmlns="http://www.w3.org/2000/svg" xmlns:xlink="http://www.w3.org/1999/xlink" x="0px" y="0px"
	 viewBox="0 0 256 256" style="enable-background:new 0 0 256 256;" xml:space="preserve">
<style type="text/css">
	.st0{fill:#00AABE;}
</style>
<path class="st0" d="M146.8,125.6c-11.5,11.5-23.1,23.1-34.6,34.6l-3.4,3.4l-44.6-37.2c-1-0.8-2.2-1.3-3.5-1.3c-0.2,0-0.3,0-0.5,0
	c-1.5,0.1-2.8,0.8-3.7,2c-0.9,1.1-1.4,2.6-1.3,4c0.1,1.5,0.8,2.8,2,3.7l48.5,40.4c2.2,1.9,5.4,1.7,7.4-0.3
	c14.3-14.3,28.6-28.6,42.9-42.9l0.9-0.9c14.1-14.1,28.2-28.2,42.4-42.4c1.1-1.1,1.7-2.4,1.7-3.9c0-1.5-0.5-2.9-1.5-3.9
	c-1.1-1.1-2.6-1.7-4.1-1.7l-0.1,0c-1.4,0-2.8,0.6-3.8,1.7c-14.5,14.5-28.9,29-43.4,43.4l0,0l0,0L146.8,125.6z"/>
</svg>
