<svg id="Layer_1" data-name="Layer 1" xmlns="http://www.w3.org/2000/svg" viewBox="0 0 256 256"><defs><style>.cls-1{fill:#fff;}</style></defs><title>icons basic + sport</title><path class="cls-1" d="M157.27,89.06a4.62,4.62,0,1,1-5.47-3.59,4.63,4.63,0,0,1,5.47,3.59"/><path class="cls-1" d="M169.25,217.69a14.58,14.58,0,0,1-3,.31H89.87c-8.82,0-16-8.09-16-18l-.14-106.3a2.92,2.92,0,1,1,5.84,0L79.69,200c0,6.72,4.57,12.17,10.19,12.19h76.39a9.31,9.31,0,0,0,7-3.42,13.28,13.28,0,0,0,3.12-8.75l-.1-144c0-6.73-4.58-12.18-10.19-12.19H89.74a9.44,9.44,0,0,0-7,3.43A13.18,13.18,0,0,0,79.59,56V72.23a2.87,2.87,0,0,1-2.91,2.91,2.92,2.92,0,0,1-2.91-2.91V56a19.17,19.17,0,0,1,4.53-12.56A15,15,0,0,1,89.74,38h76.41c8.82,0,16,8.08,16,18l.12,144a19.25,19.25,0,0,1-4.55,12.57,15.4,15.4,0,0,1-8.48,5.13"/><path class="cls-1" d="M121.17,55.27h16a2.11,2.11,0,0,0,2.11-2.12A2.14,2.14,0,0,0,137.16,51h-16a2.12,2.12,0,0,0-2.12,2.13,2.14,2.14,0,0,0,2.12,2.13"/><path class="cls-1" d="M114,54.8a1.66,1.66,0,0,0,1.65-1.67A1.66,1.66,0,1,0,114,54.8"/><path class="cls-1" d="M130.17,210.27a10.57,10.57,0,0,1-2.11.23,10.17,10.17,0,0,1-10.15-10.16,10.16,10.16,0,0,1,10.14-10.18,10.16,10.16,0,0,1,7.19,17.36,9.94,9.94,0,0,1-5.07,2.75m-3-14.2a4.36,4.36,0,0,0-2.17,1.19,4.31,4.31,0,0,0-1.27,3.06,4.36,4.36,0,0,0,4.34,4.35,4.45,4.45,0,0,0,3.05-1.26,4.27,4.27,0,0,0,1.28-3.07,4.35,4.35,0,0,0-4.35-4.35A3.65,3.65,0,0,0,127.17,196.07Z"/><path class="cls-1" d="M168.14,186.8a3,3,0,0,1-.59.07h-79a2.91,2.91,0,0,1-2.92-2.9l-.09-118.9A2.92,2.92,0,0,1,86.41,63a3,3,0,0,1,2.06-.85h79a2.93,2.93,0,0,1,2.91,2.92L170.46,184a3,3,0,0,1-.85,2.06,2.93,2.93,0,0,1-1.47.78m-76.67-5.74h73.16L164.55,68H91.39Z"/><path class="cls-1" d="M153.4,174a3.11,3.11,0,0,1-.62.06,2.91,2.91,0,0,1-2.91-2.91l.14-67.93a2.89,2.89,0,0,1,2.91-2.91,2.93,2.93,0,0,1,2.91,2.92l-.12,67.91A2.94,2.94,0,0,1,153.4,174"/></svg>
