<?xml version="1.0" encoding="UTF-8"?> <!-- Generator: Adobe Illustrator 22.1.0, SVG Export Plug-In . SVG Version: 6.00 Build 0) --> <svg xmlns="http://www.w3.org/2000/svg" xmlns:xlink="http://www.w3.org/1999/xlink" id="Layer_1" x="0px" y="0px" viewBox="0 0 256 256" style="enable-background:new 0 0 256 256;" xml:space="preserve"> <style type="text/css"> .st0{fill:#FFFFFF;} </style> <g> <path class="st0" d="M122.6,182.9c0.4,1.5,4.1,15.2,13.2,24.7c0.4,0.5,0.7,1.1,0.7,1.7v3.1c0,0.3,0.3,0.6,0.6,0.6h33.1 c0.3,0,0.6-0.2,0.6-0.5c1.3-12.1,5.8-52.2,8.6-58.8c0.4-1,0.7-1.7,0.8-2.4c0.5-3,0.8-8.4-3.1-11.5c-0.7-0.6-2.5-2.4-6.5-6.6 c-6.2-6.5-17.8-18.7-21.3-20.7c-0.8-0.4-1.2-1.3-1.2-2.1V51.3c0-4.6-3.8-8.4-8.4-8.4H83.9c-4.6,0-8.4,3.8-8.4,8.4v103.4 c0,4.6,3.8,8.4,8.4,8.4h21.5l-0.5-4.3h-9.3c-0.8,0-1.5-0.3-1.9-0.9c-0.5-0.6-0.6-1.4-0.4-2.1c0.3-1.2,0.3-2.4,0.1-3.6 c-0.6-3.5-3.4-6.3-6.8-6.9c-1.2-0.2-2.4-0.2-3.7,0.1c-0.7,0.2-1.5,0-2.1-0.5c-0.6-0.5-0.9-1.2-0.9-1.9V62.4c0-0.7,0.3-1.4,0.9-1.9 c0.5-0.5,1.3-0.7,2-0.5c0.5,0.1,1.1,0.1,1.6,0.1c4.7,0,8.5-3.8,8.5-8.5c0-0.5-0.1-1-0.1-1.5c-0.1-0.7,0.1-1.4,0.6-2 c0.5-0.6,1.2-0.9,1.9-0.9h33.3c0.7,0,1.4,0.3,1.9,0.9c0.5,0.6,0.7,1.3,0.5,2c-0.1,0.5-0.1,1-0.1,1.5c0,4.7,3.8,8.5,8.5,8.5 c0.5,0,1.1-0.1,1.6-0.1c0.7-0.1,1.4,0.1,2,0.5c0.6,0.5,0.9,1.2,0.9,1.9v101.2c0,0.9-0.5,1.8-1.4,2.2c-0.8,0.4-1.8,0.3-2.6-0.2 c-4.2-3.1-8.3-11.5-8.8-12.4c-0.1-0.3-0.2-0.6-0.2-0.8c-0.5-5.8-3.6-21-11.4-21c-0.2,0-0.4,0-0.7,0c0,0-0.5,0.1-1.1,1.2 c-1.2,2-2.5,7.5,1.7,21.9c0,0.1,0.1,0.3,0.1,0.4L122.6,182.9z M170.2,218h-33.1c-3,0-5.5-2.5-5.5-5.5v-2.2 c-10-10.9-13.6-25.7-13.8-26.3c0-0.1,0-0.2-0.1-0.3l-3.3-28.1c-3.7-12.8-3.9-21.5-0.8-26.1c1.8-2.6,4.1-2.9,4.5-3 c0.4,0,0.7,0,1.1,0c13,0,15.8,21.4,16.2,25c0.7,1.3,1.8,3.5,3.2,5.5V65c-7-0.2-12.7-5.9-13-12.9H97.8c-0.3,7-5.9,12.7-13,12.9v75.1 c0.9,0,1.8,0.1,2.7,0.2c5.4,1,9.8,5.4,10.7,10.9c0.2,0.9,0.2,1.7,0.2,2.6h7.9c0.6,0,1.2,0.2,1.6,0.6l0.9,0.7c0.5,0.4,0.7,1,0.8,1.5 l1,8.5c0.1,0.7-0.1,1.4-0.6,1.9c-0.5,0.5-1.1,0.8-1.8,0.8H83.9c-7.3,0-13.3-6-13.3-13.3V51.3c0-7.3,6-13.3,13.3-13.3h55.8 c7.3,0,13.3,6,13.3,13.3v57.8c4.3,3.2,12.5,11.6,21.2,20.8c2.6,2.8,5.4,5.7,5.9,6.1c6.1,4.8,5.5,12.8,4.9,16.1 c-0.2,1.4-0.7,2.7-1.1,3.6c-1.9,4.5-5.5,32.1-8.2,57.4C175.3,215.9,173,218,170.2,218"></path> <path class="st0" d="M97.6,101.6c1.4,0,1.5,0,1.7-1.4c0.2-1.1,0.5-2.1,0.9-3.2c0.2-0.6,0.6-0.8,1.2-0.6c0.9,0.3,1.8,0.5,2.6,0.8 c0.8,0.3,0.9,0.5,0.6,1.3c-0.8,1.6-1.1,3.3-1,5c0,0.5,0.1,0.9,0.3,1.3c0.7,1.5,2.4,1.7,3.4,0.5c0.5-0.6,0.9-1.4,1.2-2.2 c0.6-1.4,1.1-2.7,1.8-4c2.3-4.1,7.4-5.2,10.9-2.3c1.2,1,2.1,2.4,2.5,4c0.2,0.7,0.5,1,1.2,1c0.7,0,1.4,0,2.1,0c0.6,0,1,0.3,1,0.9 c0,0.7,0,1.5,0,2.3c0,0.7-0.4,1-1,1h-1.5c-1.1,0-1.2,0-1.4,1.1c-0.2,1.4-0.5,2.8-1.1,4c-0.5,1-0.8,1.1-1.8,0.8 c-0.8-0.2-1.6-0.4-2.3-0.7c-0.9-0.3-1-0.5-0.6-1.4c0.8-1.4,1.1-2.9,1.4-4.5c0.1-1,0-2-0.4-2.9c-0.8-1.7-2.8-2-4-0.5 c-0.4,0.5-0.7,1.1-1,1.7c-0.7,1.5-1.2,3.1-2,4.6c-1.4,2.4-3.3,3.8-6.2,3.6c-3.2-0.2-5.3-2-6.3-5c-0.4-1.2-0.4-1.2-1.7-1.3h-1.3 c-1,0-1.1-0.2-1.1-1.1v-0.9C95.6,101.7,95.6,101.7,97.6,101.6"></path> </g> </svg> 