<?xml version="1.0" encoding="UTF-8"?> <svg xmlns="http://www.w3.org/2000/svg" id="Layer_1" data-name="Layer 1" viewBox="0 0 256 256"><defs><style>.cls-1{fill:#cccaca;}.cls-2{fill:#f0c62f;}</style></defs><title>icons basic + sport</title><path class="cls-1" d="M111,129.31,186.5,53.64,193,60.16l-71.21,71.35a2.82,2.82,0,0,0,4,4L199,62.15a2.8,2.8,0,0,0,0-4L188.5,47.68a2.8,2.8,0,0,0-2-.82,2.76,2.76,0,0,0-2,.82L107,125.33l-5.22-5.22a37.28,37.28,0,0,0-52.84,0,37.49,37.49,0,0,0,0,52.9L74,198.18a37.35,37.35,0,0,0,52.86,0,37.57,37.57,0,0,0,0-52.93Zm11.93,64.89a31.69,31.69,0,0,1-44.87,0L52.9,169a31.8,31.8,0,0,1,22.44-54.28,31.54,31.54,0,0,1,22.43,9.31l7.2,7.21,0,0,0,0,17.87,17.89A31.9,31.9,0,0,1,122.89,194.2Z"></path><path class="cls-2" d="M96.72,139.61a2.81,2.81,0,0,0-4,4l17.89,17.93a14.44,14.44,0,0,1,0,20.41,14.71,14.71,0,0,1-20.32,0L65.17,156.75a14.44,14.44,0,0,1,0-20.38,14.68,14.68,0,0,1,20.33,0,2.82,2.82,0,0,0,4-4c-7.55-7.57-20.75-7.57-28.3,0a20.1,20.1,0,0,0,0,28.35L86.3,185.89a20,20,0,0,0,28.31-28.35Z"></path><path class="cls-1" d="M217.19,82.54,201.35,66.69a2.81,2.81,0,0,0-4,0,2.86,2.86,0,0,0,0,4l13.85,13.86-9.6,9.61-8.38-8.41a2.92,2.92,0,0,0-4,0l-9,9-3.45-3.47a2.81,2.81,0,1,0-4,4l5.44,5.46a2.82,2.82,0,0,0,4,0l9-9,8.38,8.4a2.88,2.88,0,0,0,4,0l13.58-13.6A2.82,2.82,0,0,0,217.19,82.54Z"></path></svg> 