<?xml version="1.0" encoding="UTF-8"?> <svg xmlns="http://www.w3.org/2000/svg" id="Layer_1" data-name="Layer 1" viewBox="0 0 256 256"><defs><style>.cls-1{fill:#cccaca;}</style></defs><title>icons basic + sport</title><path class="cls-1" d="M169.18,203.66c-2.76,0-5.7-.13-8.72-.41a82.07,82.07,0,0,1-24.64-5.84c-14.64-6.14-25.46-15.74-32.13-28.53A57.73,57.73,0,0,0,86.06,148.7,88.7,88.7,0,0,0,72,140.38c-12-5.76-21.3-13.33-28.43-23.15A31.84,31.84,0,0,1,39,108.46c-2.13-6.41-.85-12.25,3.8-17.39,2.72-3,6.36-5.24,11.42-7.06a4.29,4.29,0,0,0,2-1.47C64,71.94,71.58,64.4,80.07,58.78A36.67,36.67,0,0,1,95.7,52.54a23.5,23.5,0,0,1,3.13-.2,22.21,22.21,0,0,1,8.83,1.8,6.5,6.5,0,0,1,4,7.25c-1,7,.27,12.81,3.82,17.73a22,22,0,0,0,7,6.27l.39.19,2-2c1.24-1.21,2.46-2.39,3.78-3.46,4-3.21,8-4.78,12.37-4.78h.59a18.37,18.37,0,0,1,3.45.48,6.18,6.18,0,0,1,4.44,4.34l14,39.31c2.44,6.82,4.87,13.64,7.34,20.45a20.55,20.55,0,0,0,10.9,12q12.28,5.75,24.6,11.48a23.86,23.86,0,0,1,9.55,7.41,9.61,9.61,0,0,1,2,5,7.42,7.42,0,0,1-1.22,4.62c-6.68,10.58-16.42,17.45-29.75,21a69,69,0,0,1-17.83,2.18M55.09,89.31a21.11,21.11,0,0,0-8.58,5.44,11.58,11.58,0,0,0-2.4,12.94,33.55,33.55,0,0,0,5.45,9,70.29,70.29,0,0,0,24.51,18.93A92.16,92.16,0,0,1,91.5,146.3c7.34,5.72,12.33,11.53,15.68,18.3a56.08,56.08,0,0,0,28.42,27,79.15,79.15,0,0,0,32.24,6.78,88.86,88.86,0,0,0,11.63-.78,49.24,49.24,0,0,0,22-8.4l2.86-2.13-2.73.21c-2,.21-3.71.41-5.44.61-3.85.46-7.7.92-11.57,1.2-2.59.17-5.16.25-7.74.25-4.9,0-10.15-.26-17-.9a40.15,40.15,0,0,1-13-3c-5.77-2.53-10.62-6.49-14.2-9.64-4.67-4.13-10.54-9.84-14.31-17.15a61.77,61.77,0,0,0-9.65-13.56c-8.92-9.73-19-18.11-27.62-25A114.21,114.21,0,0,1,65,104.46c-3-3.63-6.8-8.57-8.83-14.59l-.06-.26-.6-.33Zm74,75.93.51.64.63.53a15.59,15.59,0,0,1,1.3,1.14A70.4,70.4,0,0,0,146,179.22c5,2.89,10.5,3.7,15.26,4.12,5.7.5,11,.76,16.1.76a133.74,133.74,0,0,0,23-1.89,34.26,34.26,0,0,0,9.61-2.78c1.25-.62,2.56-1.43,2.79-2.69s-.68-2.52-1.62-3.59a19.53,19.53,0,0,0-6.62-4.77l-24.77-11.56c-.29-.11-.57-.28-.85-.42a8.3,8.3,0,0,0-2.35-.93,36.84,36.84,0,0,0-6.32-.68c-6.85.08-11.91,2.73-15.3,7.82a10.17,10.17,0,0,1-5.56,4,16.34,16.34,0,0,1-5.27.83,22.66,22.66,0,0,1-4.64-.52c-2.11-.46-4.17-1-6.24-1.6l-3.1-.86ZM98.49,57.63c-4.58,0-9.17,1.53-14.45,4.82l-.23.13-.21.68.16.35a54.8,54.8,0,0,1,6.58,12.13c2.19,5.81,3.54,15.44.1,23.49-2.1,4.59-5.39,8.48-10.31,12.19l-.66.5,1.35,1.19c.52.47,1,.9,1.53,1.32C89.46,120.05,97,126.22,104.08,133c5.52,5.27,11.22,10.72,15.33,17.42a17.4,17.4,0,0,0,8.09,6.84c5.84,2.7,11.63,4.17,16.31,4.17,3.49,0,6.07-.82,7.26-2.3,4.12-5.11,8.55-8,14-9.08.93-.17,1.86-.3,2.74-.42l2-.31-4.69-9.54-1,.17-2.46.57c-2.51.59-5,1.16-7.53,1.71a4.52,4.52,0,0,1-1,.1,3,3,0,0,1-.71-.07,2.42,2.42,0,0,1-1.83-2.48,2.59,2.59,0,0,1,2.13-2.6l9.4-2.17a2.31,2.31,0,0,0,.56-.2l.54-.27,0-.67-1.82-5-4.61,1.15c-2.19.54-4.39,1.09-6.59,1.6a2.34,2.34,0,0,1-.64.08,2.46,2.46,0,0,1-2.4-2,2.65,2.65,0,0,1,1.87-3.16l10.61-2.67-2.09-5.77-5.36,1.29c-1.55.38-3.09.76-4.66,1.08a3.56,3.56,0,0,1-.57,0,2.43,2.43,0,0,1-2.42-1.94,2.63,2.63,0,0,1,1.94-3.21c.33-.09,9.31-2.25,9.31-2.25l-2.26-6.29-1.71.43s-7.43,2.1-9.47,2.66a4.06,4.06,0,0,1-1.07.15,2.39,2.39,0,0,1-2.43-1.87,2.44,2.44,0,0,1,.18-1.89,3.07,3.07,0,0,1,2-1.43l10.75-3.07-1.42-4c-.47-1.34-.72-2.07-1.94-2.07-.27,0-.63,0-1.09.09l-.5,0a50.55,50.55,0,0,1-6.52.43A40,40,0,0,1,130,95.07a32.28,32.28,0,0,1-8.05-3.84l-1.27-.75c-5.56-3.27-9.42-7.29-11.8-12.35a29.77,29.77,0,0,1-2.39-16.83,2.06,2.06,0,0,0-1.7-2.64l-1.42-.34a20.19,20.19,0,0,0-3.74-.66C99.23,57.64,98.87,57.63,98.49,57.63Zm-21,9.48c-5.42,4.48-10.12,9.82-14.85,15.35-2.1,2.46-2.36,4.89-.87,7.89,3.44,7.21,8.76,12.71,13.44,17.56l.41.42,1.77-1.44c.95-.76,1.89-1.49,2.76-2.31,6-5.57,8.47-12.4,7.19-20.3-.82-5.15-2.9-10.15-6.54-15.75-.3-.46-.61-.92-1-1.4L79,65.92Zm63.9,13.55c-4.93,0-10.87,3.29-13.27,7.35l-.38.65.7.3a30.34,30.34,0,0,0,11.75,2.16,53.42,53.42,0,0,0,6.77-.46l.81-.1-1-2.75c-.73-2-1.41-4-2.15-5.92a2.09,2.09,0,0,0-1.52-1.07A9.67,9.67,0,0,0,141.4,80.66Z"></path></svg> 