<?xml version="1.0" encoding="UTF-8"?> <svg xmlns="http://www.w3.org/2000/svg" id="Layer_1" data-name="Layer 1" viewBox="0 0 256 256"><defs><style>.cls-1{fill:#cccaca;}.cls-2{fill:#f0c62f;}</style></defs><title>icons basic + sport</title><path class="cls-1" d="M147,119.42a2.5,2.5,0,0,1-.72-.1l-98.18-31a2.43,2.43,0,0,1-.07-4.6l61-21.22a10.12,10.12,0,0,1,6-.22L216.22,89.71a2.4,2.4,0,0,1,.55,4.41l-69,25.17a2.71,2.71,0,0,1-.82.13M56.48,85.89l90.46,28.57,60.67-22.07L113.73,66.93a5.23,5.23,0,0,0-3.17.14Z"></path><path class="cls-1" d="M57.26,108.09a2.31,2.31,0,0,1-.73-.11l-8.75-2.84a2.41,2.41,0,0,1-1.56-1.58,30.72,30.72,0,0,1-1.29-9c0-6,1.54-9.28,1.71-9.64A2.42,2.42,0,0,1,51,87a20,20,0,0,0-1.24,7.6,25.64,25.64,0,0,0,.75,6.3l7.5,2.43a2.42,2.42,0,0,1,1.55,3,2.39,2.39,0,0,1-2.3,1.67"></path><path class="cls-1" d="M146.5,137.59a2.25,2.25,0,0,1-.76-.13l-17.36-5.72a2.42,2.42,0,1,1,1.51-4.59l13.31,4.39a35.63,35.63,0,0,1-.44-5.4c0-7.09,1.92-10,2.31-10.55a2.41,2.41,0,0,1,3.91,2.82c-.09.13-1.39,2.32-1.39,7.73a31.24,31.24,0,0,0,1.2,8.29,2.41,2.41,0,0,1-2.29,3.16"></path><path class="cls-1" d="M147.44,137.22a2.41,2.41,0,0,1-.85-4.67l65.6-25.16.69-11.8-65,23.71a2.42,2.42,0,0,1-1.66-4.54l68.51-25a2.38,2.38,0,0,1,2.26.33,2.48,2.48,0,0,1,1,2.07l-1,17a2.43,2.43,0,0,1-1.55,2.11l-67.07,25.71a2.39,2.39,0,0,1-.87.16"></path><path class="cls-1" d="M148.59,194.09a2.33,2.33,0,0,1-.92-.19l-41.4-17.14,1.85-4.46,36.81,15.23a70.76,70.76,0,0,1-2.2-14.76,56.37,56.37,0,0,1,2-15.92L116,146.24l1.66-4.53,30.81,11.34a2.43,2.43,0,0,1,1.58,3.08,53.1,53.1,0,0,0-2.44,16.49,74.65,74.65,0,0,0,3.33,18.3,2.43,2.43,0,0,1-2.3,3.17"></path><path class="cls-1" d="M149.36,194,147,189.78l64.33-35.88,1-30.34,4.82.16-1.06,31.7a2.39,2.39,0,0,1-1.24,2Z"></path><path class="cls-1" d="M147.71,157.76h-2.42l0-4.84h1.91l62.06-30.18-12.53-5.95,2.08-4.38,17.05,8.13a2.41,2.41,0,0,1,0,4.35l-67.06,32.64a2.77,2.77,0,0,1-1.06.23"></path><path class="cls-1" d="M156.94,177.41a2.42,2.42,0,0,1-1.16-4.54l45.16-24.52.44-9.34a2.44,2.44,0,0,1,2.52-2.31,2.4,2.4,0,0,1,2.29,2.53l-.48,10.7a2.43,2.43,0,0,1-1.27,2l-46.35,25.17a2.58,2.58,0,0,1-1.15.29"></path><path class="cls-2" d="M140.88,104.77a2.34,2.34,0,0,1-.72-.11L82.66,86.53a2.42,2.42,0,0,1,1.45-4.61l57.5,18.13a2.42,2.42,0,0,1-.73,4.72"></path><path class="cls-1" d="M79.2,190.89C56.48,190.89,38,172,38,148.73s18.48-42.15,41.2-42.15,41.19,18.92,41.19,42.15-18.48,42.16-41.19,42.16m0-79.46c-20.05,0-36.36,16.73-36.36,37.3s16.31,37.32,36.36,37.32,36.35-16.73,36.35-37.32S99.25,111.43,79.2,111.43Z"></path><path class="cls-1" d="M92.3,169.64H66.1a2.4,2.4,0,0,1-2.3-1.7l-8.1-25.53a2.41,2.41,0,0,1,.85-2.66L77.76,124a2.46,2.46,0,0,1,2.88,0l21.21,15.8a2.41,2.41,0,0,1,.85,2.66l-8.1,25.53a2.4,2.4,0,0,1-2.3,1.7M67.86,164.8H90.52l7.06-22.21L79.2,128.91,60.82,142.59Z"></path><rect class="cls-1" x="76.78" y="106.58" width="4.84" height="21.73"></rect><rect class="cls-1" x="47.74" y="128.39" width="4.84" height="21.36" transform="translate(-97.63 142.8) rotate(-71.61)"></rect><rect class="cls-1" x="50.46" y="171.63" width="21.59" height="4.83" transform="translate(-116.11 123.21) rotate(-54.62)"></rect><polygon class="cls-1" points="101.42 184.25 88.93 166.64 92.87 163.84 105.35 181.45 101.42 184.25"></polygon><rect class="cls-1" x="97.55" y="136.65" width="21.36" height="4.83" transform="translate(-38.32 41.21) rotate(-18.37)"></rect></svg> 