<?xml version="1.0" encoding="UTF-8"?> <svg xmlns="http://www.w3.org/2000/svg" id="Layer_1" data-name="Layer 1" viewBox="0 0 256 256"><defs><style>.cls-1{fill:#f0c62f;}.cls-2{fill:#cccaca;}</style></defs><title>icons basic + sport</title><path class="cls-1" d="M115,89.51a5,5,0,1,0,7-.47A5,5,0,0,0,115,89.51Z"></path><path class="cls-2" d="M210.36,105.4l-3.9-55.74A13.21,13.21,0,0,0,192,38l-55,7.56a13.37,13.37,0,0,0-9.17,4.85l-3,3.75a2.63,2.63,0,1,0,4.08,3.32L132,53.76a8.12,8.12,0,0,1,5.66-2.95l55-7.55a7.85,7.85,0,0,1,8.63,6.9l3.89,55.75a8,8,0,0,1-1.75,6L124,209.79A8,8,0,0,1,112.78,211l-59-48a8.07,8.07,0,0,1-1.16-11.3l69.19-85.31c1.35.2,2.71.4,4.12.63a219.73,219.73,0,0,1,28.53,6.32,17.55,17.55,0,0,0,5,20.32,17.26,17.26,0,0,0,11,3.92,13.78,13.78,0,0,0,1.82-.1A17.3,17.3,0,0,0,184,91a17.48,17.48,0,0,0-16.09-28.31,2.65,2.65,0,0,0-2.22,3,2.62,2.62,0,0,0,3,2.22,12.22,12.22,0,0,1,11.25,19.81,12.06,12.06,0,0,1-8.22,4.44,11.92,11.92,0,0,1-8.94-2.67,12.23,12.23,0,0,1-3.34-14.61c6.28,2.2,10,4.18,11.2,5.43a14.39,14.39,0,0,1-4.33,1.15,2.64,2.64,0,0,0-2.21,3,2.6,2.6,0,0,0,2.59,2.23,1.67,1.67,0,0,0,.39,0c3.62-.54,8.49-1.7,9.07-5.42.64-4-4-7.48-15-11.32a211.53,211.53,0,0,0-34.43-8.18,224.31,224.31,0,0,0-35.25-3C79.82,59,74.35,60.82,73.7,64.82c-.31,2-1.11,7.08,23.3,13.89a2.63,2.63,0,0,0,1.41-5.06c-13-3.63-17.9-6.64-19.2-8,2.86-1.58,15.24-2.8,36.47-.2L48.5,148.32A13.31,13.31,0,0,0,50.43,167l59,48a13.19,13.19,0,0,0,8.35,3,12.83,12.83,0,0,0,1.37-.07,13.13,13.13,0,0,0,8.93-4.84l79.36-97.85A13.23,13.23,0,0,0,210.36,105.4Z"></path><path class="cls-2" d="M193.75,142.56a2.63,2.63,0,0,0-3.47,1.31l-26.83,59.65a8,8,0,0,1-10.59,4L144.93,204a2.66,2.66,0,0,0-3.48,1.31,2.63,2.63,0,0,0,1.31,3.48l8,3.58a13.13,13.13,0,0,0,5.44,1.18,12.88,12.88,0,0,0,4.68-.86,13.18,13.18,0,0,0,7.41-7L195.07,146A2.62,2.62,0,0,0,193.75,142.56Z"></path><path class="cls-1" d="M105.9,101.43,64.22,152.82A3,3,0,0,0,69,156.65l41.69-51.38a3.05,3.05,0,1,0-4.75-3.84Z"></path></svg> 